<svg width="673" height="100" viewBox="0 0 673 100" fill="none" xmlns="http://www.w3.org/2000/svg">
<path d="M124.887 99.9944H93.6674L45.1025 51.7051H76.3224L124.887 99.9944Z" fill="black"/>
<path d="M62.4447 68.9517L31.2248 99.9944H0.00488281L31.2248 68.9517H62.4447Z" fill="black"/>
<path d="M319.149 65.4993H287.929L274.054 51.7031H305.274L319.149 65.4993Z" fill="black"/>
<path d="M242.826 51.7031L211.606 82.7432L228.954 99.9925H260.174L242.829 82.7459L274.049 51.7058L242.826 51.7031Z" fill="black"/>
<path d="M263.647 68.9473L277.521 82.7435L260.174 99.9927H291.391L308.741 82.7408L294.869 68.9473H263.649H263.647Z" fill="black"/>
<path d="M471.79 51.7109L437.1 86.2041H471.79L457.915 100H392.005L440.57 51.7109H471.79Z" fill="black"/>
<path d="M79.7848 0L45.0948 34.4931H79.7848L65.9098 48.2893H0L48.5649 0H79.7848Z" fill="black"/>
<path d="M142.227 51.7031L93.6621 99.9925H124.882L173.447 51.7031H142.227Z" fill="black"/>
<path d="M173.45 51.7082L190.792 68.9521L159.572 99.9949H190.795L222.015 68.9495L204.672 51.7056L173.45 51.7082Z" fill="black"/>
<path d="M138.759 0.00263992L156.102 17.2466L124.882 48.2893H156.107L187.327 17.2466L169.982 0L138.759 0.00263992Z" fill="black"/>
<path d="M124.887 48.2867L107.545 31.0428L138.764 0H107.539L76.3193 31.0454L93.6643 48.2893L124.887 48.2867Z" fill="black"/>
<path d="M339.962 51.6343L308.745 82.677L326.09 99.9263H357.31L339.965 82.6797L371.185 51.6369L339.962 51.6343Z" fill="black"/>
<path d="M371.185 51.6289H402.404L419.757 68.8834L405.88 82.6849H374.66L388.538 68.886L371.185 51.6289Z" fill="black"/>
<path d="M499.54 51.6343L468.322 82.677L485.667 99.9263H516.887L499.542 82.6797L530.762 51.6369L499.54 51.6343Z" fill="black"/>
<path d="M530.762 51.6289H561.982L579.335 68.8834L565.457 82.6849H534.237L548.115 68.886L530.762 51.6289Z" fill="black"/>
<path d="M280.995 13.7962H249.775L235.9 0H267.12L280.995 13.7962Z" fill="black"/>
<path d="M173.452 34.4956H204.672L218.547 48.2918H187.327L173.452 34.4956Z" fill="black"/>
<path d="M204.678 0L187.338 17.2439L201.215 31.0428H235.892L218.545 48.2893H249.775L267.115 31.048L253.234 17.2492H218.56L235.903 0.00263992L204.678 0Z" fill="black"/>
<path d="M673.001 65.428H641.781L627.906 51.6318H659.126L673.001 65.428Z" fill="black"/>
<path d="M565.458 86.125H596.678L610.553 99.9212H579.333L565.458 86.125Z" fill="black"/>
<path d="M596.683 51.6318L579.341 68.8758L593.221 82.6746H627.898L610.55 99.9212H641.781L659.12 82.6799L645.24 68.8784H610.566L627.908 51.6345L596.683 51.6318Z" fill="black"/>
</svg>
