<svg width="19" height="22" viewBox="0 0 19 22" fill="none" xmlns="http://www.w3.org/2000/svg">
<g clip-path="url(#clip0_318_318)">
<path d="M17.8763 5.15826C16.7697 4.91754 15.8376 4.37163 15.08 3.52052C14.3224 2.6694 13.884 1.66784 13.7648 0.515826V0.490035V0H10.0108V15.0621C10.0108 15.939 9.7043 16.687 9.0914 17.306C8.47849 17.925 7.7294 18.2345 6.84409 18.2345C6.33333 18.2345 5.86089 18.1184 5.42675 17.8863C4.99261 17.6542 4.63083 17.349 4.3414 16.9707C4.1371 16.6956 3.97961 16.3947 3.86895 16.068C3.75829 15.7413 3.70296 15.3974 3.70296 15.0363C3.70296 14.1594 4.00941 13.4115 4.62231 12.7925C5.23522 12.1735 5.9758 11.864 6.84409 11.864C6.84409 11.864 6.8526 11.864 6.86962 11.864H6.84409C6.86111 11.864 6.86962 11.864 6.86962 11.864C7.03988 11.864 7.20587 11.8769 7.36761 11.9027C7.52935 11.9285 7.68683 11.9672 7.84005 12.0188L7.81452 11.993V8.15006C7.67831 8.13286 7.5336 8.11997 7.38038 8.11137C7.22715 8.10277 7.06541 8.09848 6.89516 8.09848C6.86111 8.09848 6.83132 8.09848 6.80578 8.09848C6.78024 8.09848 6.75045 8.09848 6.7164 8.09848C5.79704 8.11567 4.92877 8.3134 4.11156 8.69168C3.29435 9.06995 2.58356 9.57288 1.97917 10.2005C1.37477 10.8281 0.893819 11.5545 0.53629 12.3798C0.178762 13.2224 0 14.1164 0 15.0621C0 16.0078 0.178762 16.8976 0.53629 17.7315C0.893819 18.5655 1.37052 19.3005 1.9664 19.9367C2.59633 20.5729 3.33691 21.0758 4.18817 21.4455C5.03943 21.8152 5.94175 22 6.89516 22C7.84857 22 8.74238 21.8195 9.57661 21.4584C10.4279 21.0973 11.1642 20.603 11.7856 19.9754C12.407 19.3478 12.8965 18.6127 13.254 17.7702C13.6286 16.9277 13.8159 16.025 13.8159 15.0621V7.35053C14.5309 7.86636 15.3268 8.27472 16.2036 8.57562C17.0804 8.87652 18.004 9.02696 18.9745 9.02696C18.9745 9.02696 18.9787 9.02696 18.9872 9.02696C18.9957 9.02696 19 9.02696 19 9.02696V5.28722C19 5.28722 18.9915 5.28722 18.9745 5.28722C18.7872 5.28722 18.6042 5.27433 18.4254 5.24853C18.2466 5.22274 18.0636 5.19265 17.8763 5.15826Z" fill="black"/>
</g>
<defs>
<clipPath id="clip0_318_318">
<rect width="19" height="22" fill="white"/>
</clipPath>
</defs>
</svg>
