<svg width="24" height="17" viewBox="0 0 24 17" fill="none" xmlns="http://www.w3.org/2000/svg">
<g clip-path="url(#clip0_318_320)">
<path d="M23.4941 2.67224C23.363 2.16053 23.1101 1.71516 22.7354 1.33612C22.3607 0.957077 21.9204 0.691751 21.4145 0.540134H21.3864C20.918 0.407469 20.1686 0.303234 19.1382 0.227425C18.089 0.170569 17.0398 0.123189 15.9906 0.0852843C14.9414 0.0473799 14.0141 0.0284281 13.2084 0.0284281C12.4028 0.00947633 12 0 12 0C12 0 11.5972 0.00947633 10.7916 0.0284281C9.98594 0.0284281 9.05855 0.0426421 8.00937 0.0710702C6.96018 0.0994983 5.91101 0.14214 4.86183 0.198997C3.83138 0.274806 3.08197 0.379041 2.61358 0.511706C2.08899 0.663323 1.63935 0.928649 1.26464 1.30769C0.889928 1.68674 0.637003 2.1321 0.505855 2.64381C0.243559 3.61037 0.0936771 4.82803 0.0562061 6.29682C0.0187351 7.76561 0 8.5 0 8.5C0 8.5 0.0187351 9.23912 0.0562061 10.7174C0.0936771 12.1957 0.234191 13.3991 0.477752 14.3278C0.6089 14.8584 0.866509 15.3133 1.25059 15.6923C1.63466 16.0714 2.07962 16.3367 2.58548 16.4883C3.0726 16.602 3.83138 16.6968 4.86183 16.7726C5.89228 16.8484 6.93676 16.9052 7.99532 16.9431C9.05387 16.981 9.98594 17 10.7916 17C11.5785 17 11.9719 17 11.9719 17C11.9719 17 12.3747 17 13.1803 17C13.986 17 14.918 16.9858 15.9766 16.9574C17.0351 16.9289 18.0796 16.8768 19.1101 16.801C20.1405 16.7441 20.8899 16.6494 21.3583 16.5167C21.8829 16.3651 22.3326 16.0998 22.7073 15.7207C23.082 15.3417 23.3443 14.9058 23.4941 14.413V14.3846C23.7377 13.437 23.8829 12.2241 23.9297 10.7458C23.9766 9.26755 24 8.52843 24 8.52843C24 8.52843 23.9813 7.78931 23.9438 6.31104C23.9063 4.83277 23.7564 3.61985 23.4941 2.67224ZM9.58314 12.1388L9.61124 4.8612L15.8501 8.5L9.58314 12.1388Z" fill="black"/>
</g>
<defs>
<clipPath id="clip0_318_320">
<rect width="24" height="17" fill="white"/>
</clipPath>
</defs>
</svg>
