<?xml version="1.0" encoding="UTF-8"?>
<svg id="Layer_2" data-name="Layer 2" xmlns="http://www.w3.org/2000/svg" viewBox="0 0 139.88 66.09">
  <defs>
    <style>
      .cls-1 {
        fill: #00a846;
      }

      .cls-2 {
        fill: #007ad6;
      }

      .cls-3 {
        fill: #ff001b;
      }

      .cls-4 {
        fill: #ffac00;
      }
    </style>
  </defs>
  <g id="Layer_1-2" data-name="Layer 1">
    <g>
      <path class="cls-2" d="M42.65,21.32c0,.79-.04,1.57-.13,2.34-.1.93-.26,1.85-.49,2.76-.27,1.09-.62,2.16-1.06,3.2-1.07,2.54-2.61,4.82-4.57,6.78-1.96,1.96-4.24,3.5-6.78,4.57-.8.34-1.62.63-2.45.86.16-1.04.41-2.05.74-3.03,5.22-1.98,9.33-6.22,11.11-11.53.33-.98.58-1.99.74-3.03.15-.95.23-1.93.23-2.93,0-10.3-8.38-18.69-18.69-18.69S2.64,11.02,2.64,21.32s8.38,18.69,18.69,18.69c1.23,0,2.43-.12,3.6-.35-.22.91-.39,1.83-.49,2.76-1.02.15-2.06.22-3.11.22-2.88,0-5.67-.56-8.3-1.68-2.54-1.07-4.82-2.61-6.78-4.57-1.96-1.96-3.5-4.24-4.57-6.78-1.11-2.63-1.68-5.42-1.68-8.3s.56-5.67,1.68-8.3c1.07-2.54,2.61-4.82,4.57-6.78,1.96-1.96,4.24-3.5,6.78-4.57,2.63-1.11,5.42-1.68,8.3-1.68s5.67.56,8.3,1.68c2.54,1.07,4.82,2.61,6.78,4.57,1.96,1.96,3.49,4.24,4.57,6.78,1.11,2.63,1.68,5.42,1.68,8.3Z"/>
      <path d="M73.54,39.66c-.22.91-.39,1.83-.49,2.76-1.02.15-2.06.22-3.11.22s-2.09-.08-3.11-.22c-.93-.13-1.84-.33-2.74-.59-.83-.24-1.65-.52-2.45-.86-2.54-1.07-4.82-2.61-6.78-4.57-1.96-1.96-3.5-4.24-4.57-6.78-.44-1.04-.8-2.11-1.06-3.2,1.03.2,2.03.49,3,.85,1.79,5.3,5.9,9.55,11.12,11.53h0c.96.37,1.97.65,3,.85,1.16.23,2.37.35,3.6.35s2.43-.12,3.6-.35Z"/>
      <path class="cls-3" d="M139.88,21.32c0,2.88-.56,5.67-1.68,8.3-1.07,2.54-2.61,4.82-4.57,6.78-1.96,1.96-4.24,3.5-6.78,4.57-2.63,1.11-5.42,1.68-8.3,1.68-1.05,0-2.09-.08-3.11-.22-.93-.13-1.84-.33-2.74-.59-.83-.24-1.65-.52-2.45-.86-2.54-1.07-4.82-2.61-6.78-4.57-1.96-1.96-3.5-4.24-4.57-6.78-.44-1.04-.8-2.11-1.06-3.2,1.03.2,2.03.49,3,.85h0c1.79,5.3,5.9,9.55,11.11,11.53.96.37,1.97.65,3,.85,1.16.23,2.37.35,3.6.35,10.3,0,18.69-8.38,18.69-18.69s-8.38-18.69-18.69-18.69-18.69,8.38-18.69,18.69c0,1,.08,1.97.23,2.93-.9-.26-1.81-.45-2.74-.59-.08-.77-.13-1.55-.13-2.34,0-2.88.56-5.67,1.68-8.3,1.07-2.54,2.61-4.82,4.57-6.78,1.96-1.96,4.24-3.5,6.78-4.57,2.63-1.11,5.42-1.68,8.3-1.68s5.67.56,8.3,1.68c2.54,1.07,4.82,2.61,6.78,4.57,1.96,1.96,3.5,4.24,4.57,6.78,1.11,2.63,1.68,5.42,1.68,8.3Z"/>
      <path class="cls-4" d="M63.34,38.81h0c-1.79-5.31-5.9-9.55-11.12-11.53-.96-.36-1.97-.65-3-.85-1.16-.23-2.37-.35-3.6-.35s-2.43.12-3.6.35c.22-.91.39-1.83.49-2.76,1.02-.15,2.06-.22,3.11-.22s2.09.08,3.11.22c.93.13,1.84.33,2.74.59.83.24,1.65.52,2.45.86,2.54,1.07,4.82,2.61,6.78,4.57,1.96,1.96,3.49,4.24,4.57,6.78.44,1.04.8,2.11,1.06,3.2-1.03-.2-2.03-.49-3-.85Z"/>
      <path class="cls-4" d="M66.96,44.76c0,2.88-.56,5.67-1.68,8.3-1.07,2.54-2.61,4.82-4.57,6.78-1.96,1.96-4.24,3.5-6.78,4.57-2.63,1.11-5.42,1.68-8.3,1.68s-5.67-.56-8.3-1.68c-2.54-1.07-4.82-2.61-6.78-4.57-1.96-1.96-3.49-4.24-4.57-6.78-1.11-2.63-1.68-5.42-1.68-8.3,0-.79.04-1.57.13-2.34.1-.93.26-1.86.49-2.76.27-1.09.62-2.16,1.06-3.2,1.07-2.54,2.61-4.82,4.57-6.78,1.96-1.96,4.24-3.5,6.78-4.57.8-.34,1.62-.63,2.45-.86-.16,1.04-.41,2.05-.74,3.03-5.22,1.98-9.33,6.22-11.11,11.53-.33.98-.58,1.99-.74,3.03-.15.95-.23,1.93-.23,2.93,0,10.3,8.38,18.69,18.69,18.69s18.68-8.38,18.68-18.69c0-1-.08-1.97-.23-2.93.9.26,1.81.45,2.74.59.08.77.13,1.55.13,2.34Z"/>
      <path class="cls-1" d="M114.96,39.66c-1.03-.2-2.03-.49-3-.85-1.79-5.3-5.9-9.55-11.11-11.53h0c-.96-.36-1.97-.65-3-.85-1.16-.23-2.37-.35-3.6-.35s-2.43.12-3.6.35c.22-.91.39-1.83.49-2.76,1.02-.15,2.06-.22,3.11-.22s2.09.08,3.11.22c.93.13,1.84.33,2.74.59.83.24,1.65.52,2.45.86,2.54,1.07,4.82,2.61,6.78,4.57,1.96,1.96,3.49,4.24,4.57,6.78.44,1.04.8,2.11,1.06,3.2Z"/>
      <path class="cls-1" d="M115.57,44.76c0,2.88-.56,5.67-1.68,8.3-1.07,2.54-2.61,4.82-4.57,6.78-1.96,1.96-4.24,3.5-6.78,4.57-2.63,1.11-5.42,1.68-8.3,1.68s-5.67-.56-8.3-1.68c-2.54-1.07-4.82-2.61-6.78-4.57s-3.49-4.24-4.57-6.78c-1.11-2.63-1.68-5.42-1.68-8.3,0-.79.04-1.57.13-2.34.1-.93.26-1.85.49-2.76.27-1.09.62-2.16,1.06-3.2,1.07-2.54,2.61-4.82,4.57-6.78,1.96-1.96,4.24-3.5,6.78-4.57.8-.34,1.62-.63,2.45-.86-.16,1.04-.41,2.05-.74,3.03-5.22,1.98-9.33,6.22-11.11,11.53h0c-.33.98-.58,1.99-.74,3.03-.15.95-.23,1.93-.23,2.93,0,10.3,8.38,18.69,18.69,18.69s18.68-8.38,18.68-18.69c0-1-.08-1.97-.23-2.93.9.26,1.81.45,2.74.59.08.77.13,1.55.13,2.34Z"/>
      <path d="M91.26,21.32c0,.79-.04,1.57-.13,2.34-.1.93-.26,1.86-.49,2.76-.27,1.09-.62,2.16-1.06,3.2-1.07,2.54-2.61,4.82-4.57,6.78-1.96,1.96-4.24,3.5-6.78,4.57-.8.34-1.62.63-2.45.86.16-1.04.41-2.05.74-3.03h0c5.22-1.98,9.33-6.22,11.11-11.53.33-.98.58-1.99.74-3.03.15-.95.23-1.93.23-2.93,0-10.3-8.38-18.69-18.69-18.69s-18.69,8.38-18.69,18.69c0,1,.08,1.97.23,2.93-.9-.26-1.81-.45-2.74-.59-.08-.77-.13-1.55-.13-2.34,0-2.88.56-5.67,1.68-8.3,1.07-2.54,2.61-4.82,4.57-6.78,1.96-1.96,4.24-3.5,6.78-4.57,2.63-1.11,5.42-1.68,8.3-1.68s5.67.56,8.3,1.68c2.54,1.07,4.82,2.61,6.78,4.57,1.96,1.96,3.5,4.24,4.57,6.78,1.11,2.63,1.68,5.42,1.68,8.3Z"/>
    </g>
  </g>
</svg>