<?xml version="1.0" encoding="UTF-8"?>
<svg id="Layer_2" data-name="Layer 2" xmlns="http://www.w3.org/2000/svg" viewBox="0 0 162.05 29.94">
  <g id="Layer_1-2" data-name="Layer 1">
    <g>
      <path d="M1.46.26v9.77h5.83v1.23H0V.26h1.46Z"/>
      <path d="M8.29,3.6c.22-.69.55-1.31.99-1.84s.99-.96,1.65-1.28c.66-.32,1.42-.48,2.3-.48s1.64.16,2.3.48c.66.32,1.21.75,1.65,1.28.44.53.77,1.15.99,1.84s.33,1.42.33,2.17-.11,1.47-.33,2.17-.55,1.31-.99,1.84c-.44.53-.99.96-1.65,1.27-.66.31-1.42.47-2.3.47s-1.64-.16-2.3-.47c-.66-.31-1.21-.74-1.65-1.27-.44-.53-.77-1.15-.99-1.84s-.33-1.42-.33-2.17.11-1.47.33-2.17ZM9.63,7.41c.14.54.37,1.03.68,1.46s.7.78,1.19,1.04c.48.26,1.06.39,1.73.39s1.24-.13,1.73-.39c.48-.26.88-.61,1.19-1.04.31-.43.53-.92.68-1.46s.22-1.09.22-1.64-.07-1.1-.22-1.64c-.14-.54-.37-1.03-.68-1.46-.31-.43-.7-.78-1.19-1.04-.48-.26-1.06-.39-1.73-.39s-1.24.13-1.73.39c-.48.26-.88.61-1.19,1.04s-.53.92-.68,1.46c-.14.54-.22,1.09-.22,1.64s.07,1.1.22,1.64Z"/>
      <path d="M25.8,1.77c-.49-.36-1.11-.53-1.87-.53-.31,0-.61.03-.91.09s-.56.16-.79.31c-.23.14-.42.34-.55.58-.14.24-.21.54-.21.9,0,.34.1.61.3.82s.47.38.8.52c.33.13.71.24,1.13.33.42.09.85.18,1.29.29.44.1.87.22,1.29.36.42.14.8.33,1.13.56s.6.53.8.89c.2.36.3.81.3,1.36,0,.59-.13,1.09-.39,1.5s-.6.76-1.01,1.02c-.41.26-.87.45-1.38.57-.51.12-1.01.18-1.52.18-.62,0-1.2-.08-1.75-.23-.55-.15-1.03-.39-1.45-.7s-.75-.71-.99-1.2c-.24-.49-.36-1.07-.36-1.73h1.39c0,.46.09.86.27,1.19.18.33.42.61.71.83.29.22.63.37,1.03.48s.79.15,1.2.15c.33,0,.66-.03.99-.09.33-.06.63-.17.9-.32.27-.15.48-.35.65-.61.16-.26.25-.59.25-.99,0-.38-.1-.69-.3-.92s-.47-.43-.8-.58c-.33-.15-.71-.27-1.13-.36-.42-.09-.85-.19-1.29-.28s-.87-.21-1.29-.34c-.42-.13-.8-.3-1.13-.51-.33-.21-.6-.48-.8-.82-.2-.33-.3-.75-.3-1.26,0-.55.11-1.03.34-1.44s.53-.74.9-1c.37-.26.8-.46,1.28-.59.48-.13.97-.19,1.47-.19.56,0,1.09.07,1.57.2.48.13.91.34,1.27.63.36.29.65.65.86,1.09.21.44.33.96.35,1.56h-1.39c-.08-.79-.37-1.36-.86-1.72Z"/>
      <path d="M39.17.26l4.3,11.01h-1.62l-1.2-3.31h-4.66l-1.23,3.31h-1.5L37.55.26h1.62ZM40.18,6.72l-1.83-5.13h-.03l-1.87,5.13h3.73Z"/>
      <path d="M46.09.26l5.8,8.93h.03V.26h1.39v11.01h-1.6l-5.75-8.83h-.03v8.83h-1.39V.26h1.56Z"/>
      <path d="M62.3,11.14c-.64.25-1.28.38-1.93.38-.82,0-1.56-.15-2.2-.46-.65-.3-1.2-.71-1.65-1.23-.45-.51-.8-1.1-1.03-1.77s-.35-1.36-.35-2.08c0-.8.11-1.56.33-2.29.22-.72.55-1.36.99-1.9s.98-.98,1.63-1.3c.65-.32,1.42-.49,2.29-.49.6,0,1.16.07,1.69.21.53.14,1,.36,1.42.65.42.3.77.68,1.05,1.13.28.46.47,1.01.58,1.66h-1.46c-.07-.42-.21-.78-.4-1.09-.2-.3-.44-.55-.72-.75-.29-.2-.61-.34-.98-.44-.36-.1-.75-.15-1.16-.15-.67,0-1.24.13-1.72.4-.48.27-.87.62-1.17,1.06-.3.44-.53.93-.67,1.49-.14.56-.22,1.13-.22,1.72s.08,1.13.25,1.66.41,1,.72,1.4.71.73,1.18.97c.47.24,1.01.36,1.63.36.58,0,1.08-.09,1.53-.28.44-.19.81-.44,1.12-.76s.53-.7.69-1.14c.15-.44.22-.91.2-1.41h-3.51v-1.23h4.82v5.8h-.92l-.39-1.37c-.43.58-.97.99-1.6,1.24Z"/>
      <path d="M74.98.26v1.23h-6.14v3.5h5.72v1.23h-5.72v3.81h6.18v1.23h-7.65V.26h7.6Z"/>
      <path d="M78.26.26v9.77h5.83v1.23h-7.29V.26h1.46Z"/>
      <path d="M92.96.26v1.23h-6.14v3.5h5.72v1.23h-5.72v3.81h6.18v1.23h-7.65V.26h7.6Z"/>
      <path d="M100.29,1.77c-.49-.36-1.11-.53-1.87-.53-.31,0-.61.03-.91.09s-.56.16-.79.31c-.23.14-.42.34-.55.58-.14.24-.21.54-.21.9,0,.34.1.61.3.82s.47.38.8.52c.33.13.71.24,1.13.33.42.09.85.18,1.29.29.44.1.87.22,1.29.36.42.14.8.33,1.13.56s.6.53.8.89c.2.36.3.81.3,1.36,0,.59-.13,1.09-.39,1.5s-.6.76-1.01,1.02c-.41.26-.87.45-1.38.57-.51.12-1.01.18-1.52.18-.62,0-1.2-.08-1.75-.23-.55-.15-1.03-.39-1.45-.7s-.75-.71-.99-1.2c-.24-.49-.36-1.07-.36-1.73h1.39c0,.46.09.86.27,1.19.18.33.42.61.71.83.29.22.63.37,1.03.48s.79.15,1.2.15c.33,0,.66-.03.99-.09.33-.06.63-.17.9-.32.27-.15.48-.35.65-.61.16-.26.25-.59.25-.99,0-.38-.1-.69-.3-.92s-.47-.43-.8-.58c-.33-.15-.71-.27-1.13-.36-.42-.09-.85-.19-1.29-.28s-.87-.21-1.29-.34c-.42-.13-.8-.3-1.13-.51-.33-.21-.6-.48-.8-.82-.2-.33-.3-.75-.3-1.26,0-.55.11-1.03.34-1.44s.53-.74.9-1c.37-.26.8-.46,1.28-.59.48-.13.97-.19,1.47-.19.56,0,1.09.07,1.57.2.48.13.91.34,1.27.63.36.29.65.65.86,1.09.21.44.33.96.35,1.56h-1.39c-.08-.79-.37-1.36-.86-1.72Z"/>
      <path d="M115.68,11.27h-1.5l-1.31-2.19-1.45-2.4h-.06l-1.5,2.4-1.39,2.19h-1.45l3.6-5.61-3.39-5.39h1.5l1.28,2.13,1.37,2.22h.06l1.36-2.22,1.32-2.13h1.45l-3.41,5.38,3.52,5.63Z"/>
      <path d="M125.14,11.27h-1.5l-1.31-2.19-1.45-2.4h-.06l-1.5,2.4-1.39,2.19h-1.45l3.6-5.61-3.39-5.39h1.5l1.28,2.13,1.37,2.22h.06l1.36-2.22,1.32-2.13h1.45l-3.41,5.38,3.52,5.63Z"/>
      <path d="M129.36,11.27l-3.26-11.01h1.4l1.56,5.5,1.18,4.16h.08l1.18-4.16,1.56-5.5h1.36l-3.26,11.01h-1.8Z"/>
      <path d="M136.32,11.27v-1.06h2.74V1.32h-2.74V.26h6.81v1.06h-2.74v8.89h2.74v1.06h-6.81Z"/>
      <path d="M145.78,11.27v-1.06h2.74V1.32h-2.74V.26h6.81v1.06h-2.74v8.89h2.74v1.06h-6.81Z"/>
      <path d="M155.24,11.27v-1.06h2.74V1.32h-2.74V.26h6.81v1.06h-2.74v8.89h2.74v1.06h-6.81Z"/>
      <path d="M16.01,29.7h-1.5l-1.31-2.19-1.45-2.4h-.06l-1.5,2.4-1.39,2.19h-1.45l3.6-5.61-3.39-5.39h1.5l1.28,2.13,1.37,2.22h.06l1.36-2.22,1.32-2.13h1.45l-3.41,5.38,3.52,5.63Z"/>
      <path d="M25.47,29.7h-1.5l-1.31-2.19-1.45-2.4h-.06l-1.5,2.4-1.39,2.19h-1.45l3.6-5.61-3.39-5.39h1.5l1.28,2.13,1.37,2.22h.06l1.36-2.22,1.32-2.13h1.45l-3.41,5.38,3.52,5.63Z"/>
      <path d="M34.93,29.7h-1.5l-1.31-2.19-1.45-2.4h-.06l-1.5,2.4-1.39,2.19h-1.45l3.6-5.61-3.39-5.39h1.5l1.28,2.13,1.37,2.22h.06l1.36-2.22,1.32-2.13h1.45l-3.41,5.38,3.52,5.63Z"/>
      <path d="M36.65,29.7v-1.06h2.74v-8.89h-2.74v-1.06h6.81v1.06h-2.74v8.89h2.74v1.06h-6.81Z"/>
      <path d="M48.62,29.7l-3.26-11.01h1.4l1.56,5.5,1.18,4.16h.08l1.18-4.16,1.56-5.5h1.36l-3.26,11.01h-1.8Z"/>
      <path d="M54.97,18.56h.7v-1.26h.93v1.26h.84v.69h-.84v2.25c0,.1,0,.18.01.25,0,.07.03.13.06.18.03.05.07.09.13.11.06.02.14.04.24.04.06,0,.13,0,.2,0,.06,0,.13-.01.2-.03v.72c-.1.01-.2.02-.3.03-.1.01-.2.02-.3.02-.24,0-.44-.02-.59-.07-.15-.05-.27-.11-.35-.2-.08-.09-.14-.2-.17-.34s-.05-.29-.05-.47v-2.49h-.7v-.69Z"/>
      <path d="M58.11,16.95h.93v2.16h.02c.11-.19.28-.35.51-.48.23-.13.48-.19.76-.19.46,0,.83.12,1.09.36.27.24.4.6.4,1.08v2.9h-.93v-2.65c-.01-.33-.08-.57-.21-.72-.13-.15-.33-.22-.61-.22-.16,0-.3.03-.42.09-.13.06-.23.14-.32.24-.09.1-.15.22-.2.36-.05.14-.07.28-.07.43v2.49h-.93v-5.83Z"/>
      <path d="M73.01,18.44c1.43,0,2.67.54,3.71,1.63s1.57,2.44,1.57,4.06-.53,3.06-1.58,4.16c-1.05,1.1-2.33,1.66-3.83,1.66s-2.79-.54-3.82-1.61c-1.03-1.08-1.55-2.47-1.55-4.18s.59-3.17,1.78-4.28c1.03-.96,2.27-1.44,3.71-1.44ZM72.85,19.03c-.98,0-1.77.36-2.37,1.1-.74.91-1.11,2.24-1.11,3.99s.38,3.18,1.15,4.15c.59.74,1.37,1.1,2.34,1.1,1.03,0,1.89-.4,2.56-1.21.67-.81,1.01-2.08,1.01-3.81,0-1.88-.37-3.29-1.11-4.21-.59-.74-1.42-1.1-2.47-1.1Z"/>
      <path d="M88.45,26.65l.27.06-.94,2.99h-8.52v-.3h.41c.47,0,.8-.15,1-.45.11-.17.17-.57.17-1.2v-7.1c0-.69-.08-1.12-.23-1.29-.21-.24-.52-.36-.94-.36h-.41v-.3h4.98v.3c-.58,0-.99.05-1.23.16-.23.11-.4.26-.48.43s-.13.59-.13,1.24v6.91c0,.45.04.76.13.93.06.11.16.2.3.25.13.05.56.08,1.27.08h.8c.84,0,1.44-.06,1.78-.19s.65-.34.93-.66c.28-.32.56-.82.84-1.5Z"/>
      <path d="M95.33,18.69h3.84v.3h-.21c-.14,0-.35.06-.62.19s-.52.3-.74.54-.5.61-.82,1.14l-2.65,4.18v2.76c0,.68.08,1.1.23,1.27.21.23.53.34.97.34h.36v.3h-4.67v-.3h.39c.47,0,.8-.14.99-.42.12-.17.18-.57.18-1.18v-2.6l-3.02-4.61c-.36-.54-.6-.88-.73-1.01-.13-.13-.39-.3-.79-.49-.11-.05-.27-.08-.47-.08v-.3h4.71v.3h-.24c-.25,0-.49.06-.7.18-.21.12-.32.3-.32.54,0,.2.16.55.49,1.05l2.3,3.55,2.16-3.39c.32-.51.49-.89.49-1.14,0-.15-.04-.29-.12-.41-.08-.12-.19-.21-.34-.28-.15-.07-.37-.1-.66-.1v-.3Z"/>
      <path d="M106.21,29.69l-4.25-9.26v7.35c0,.68.07,1.1.22,1.27.2.23.52.34.95.34h.39v.3h-3.83v-.3h.39c.47,0,.8-.14.99-.42.12-.17.18-.57.18-1.18v-7.19c0-.49-.05-.84-.16-1.05-.08-.16-.21-.29-.42-.39-.2-.11-.53-.16-.98-.16v-.3h3.12l3.99,8.61,3.93-8.61h3.12v.3h-.38c-.47,0-.8.14-1,.42-.12.17-.18.57-.18,1.18v7.19c0,.68.08,1.1.23,1.27.2.23.52.34.95.34h.38v.3h-4.67v-.3h.39c.47,0,.8-.14.99-.42.12-.17.18-.57.18-1.18v-7.35l-4.24,9.26h-.27Z"/>
      <path d="M117.6,24.54v3.21c0,.69.08,1.12.23,1.29.21.24.52.36.93.36h.42v.3h-4.71v-.3h.41c.47,0,.8-.15,1-.45.11-.17.16-.57.16-1.19v-7.11c0-.69-.07-1.12-.22-1.29-.21-.24-.52-.36-.94-.36h-.41v-.3h4.03c.98,0,1.76.1,2.33.3.57.2,1.05.54,1.44,1.03.39.48.58,1.05.58,1.71,0,.9-.3,1.63-.89,2.19-.59.56-1.43.84-2.51.84-.26,0-.55-.02-.86-.06-.31-.04-.64-.09-.99-.17ZM117.6,24.08c.29.05.54.09.76.12.22.03.41.04.57.04.56,0,1.05-.22,1.46-.65.41-.44.61-1,.61-1.69,0-.48-.1-.92-.29-1.33-.19-.41-.47-.71-.83-.92-.36-.2-.76-.3-1.22-.3-.28,0-.63.05-1.06.15v4.58Z"/>
      <path d="M128.56,29.39v.3h-4.71v-.3h.39c.45,0,.78-.13.99-.4.13-.17.19-.59.19-1.25v-7.11c0-.56-.04-.93-.11-1.1-.05-.13-.16-.25-.33-.35-.24-.13-.49-.19-.75-.19h-.39v-.3h4.71v.3h-.4c-.45,0-.78.13-.98.4-.13.17-.2.59-.2,1.25v7.11c0,.56.04.92.11,1.1.05.14.17.25.34.35.23.13.48.19.74.19h.4Z"/>
      <path d="M136.56,26.01h-4.26l-.75,1.74c-.18.43-.28.75-.28.96,0,.17.08.32.24.44s.5.21,1.03.25v.3h-3.46v-.3c.46-.08.76-.19.89-.32.28-.26.58-.79.92-1.58l3.87-9.05h.28l3.83,9.15c.31.74.59,1.21.84,1.43.25.22.6.34,1.05.37v.3h-4.34v-.3c.44-.02.73-.09.89-.22.15-.12.23-.28.23-.45,0-.24-.11-.61-.32-1.13l-.67-1.58ZM136.34,25.41l-1.87-4.45-1.91,4.45h3.78Z"/>
      <path d="M141.25,29.69v-.3h.41c.47,0,.8-.15.99-.45.12-.18.18-.58.18-1.2v-7.11c0-.69-.08-1.12-.23-1.29-.21-.24-.52-.36-.94-.36h-.41v-.3h4.48c1.64,0,2.89.19,3.75.56.86.37,1.55,1,2.07,1.87.52.87.78,1.88.78,3.02,0,1.53-.47,2.81-1.39,3.84-1.04,1.15-2.63,1.72-4.77,1.72h-4.92ZM144.38,28.9c.69.15,1.26.23,1.73.23,1.25,0,2.3-.44,3.12-1.32.83-.88,1.24-2.08,1.24-3.59s-.41-2.72-1.24-3.59c-.83-.88-1.89-1.31-3.19-1.31-.49,0-1.04.08-1.66.23v9.35Z"/>
    </g>
  </g>
</svg>